<?xml version="1.0" encoding="UTF-8"?>
<svg xmlns="http://www.w3.org/2000/svg" width="1200" height="320" viewBox="0 0 1200 320" role="img" aria-label="ORBM banner">
  <defs>
    <linearGradient id="bg" x1="0" y1="0" x2="1" y2="1">
      <stop offset="0" stop-color="#0b1020"/>
      <stop offset="1" stop-color="#101a3a"/>
    </linearGradient>
    <linearGradient id="accent" x1="0" y1="0" x2="1" y2="0">
      <stop offset="0" stop-color="#27e6ff"/>
      <stop offset="0.55" stop-color="#7c4dff"/>
      <stop offset="1" stop-color="#ff3da6"/>
    </linearGradient>
    <filter id="softGlow" x="-20%" y="-20%" width="140%" height="140%">
      <feGaussianBlur stdDeviation="10" result="b"/>
      <feColorMatrix in="b" type="matrix"
        values="1 0 0 0 0
                0 1 0 0 0
                0 0 1 0 0
                0 0 0 0.65 0" result="c"/>
      <feMerge>
        <feMergeNode in="c"/>
        <feMergeNode in="SourceGraphic"/>
      </feMerge>
    </filter>
    <pattern id="grid" width="48" height="48" patternUnits="userSpaceOnUse">
      <path d="M48 0H0V48" fill="none" stroke="#ffffff" stroke-opacity="0.06" stroke-width="1"/>
    </pattern>
  </defs>

  <rect x="0" y="0" width="1200" height="320" fill="url(#bg)"/>
  <rect x="0" y="0" width="1200" height="320" fill="url(#grid)"/>

  <!-- accent ribbon -->
  <g filter="url(#softGlow)">
    <path d="M-60 250 C 240 150, 420 340, 760 220 S 1180 120, 1320 240"
          fill="none" stroke="url(#accent)" stroke-width="16" stroke-linecap="round" opacity="0.95"/>
    <path d="M-80 120 C 220 30, 500 170, 780 80 S 1140 10, 1320 110"
          fill="none" stroke="url(#accent)" stroke-width="10" stroke-linecap="round" opacity="0.55"/>
  </g>

  <!-- title -->
  <g font-family="ui-sans-serif, system-ui, -apple-system, Segoe UI, Roboto, Helvetica, Arial, 'Apple Color Emoji', 'Segoe UI Emoji'">
    <text x="86" y="150" font-size="84" font-weight="800" fill="#f7f8ff" letter-spacing="1.5">ORBM</text>
    <rect x="86" y="168" width="250" height="8" rx="4" fill="url(#accent)" opacity="0.95"/>
    <text x="86" y="218" font-size="30" font-weight="600" fill="#cfd6ff" opacity="0.95">
      ORB Monitoring  CORBA / TAO traffic inspector
    </text>
    <text x="86" y="255" font-size="18" font-weight="500" fill="#aeb7ff" opacity="0.85">
      Passive capture " GIOP + CDR decode via IDL " Web UI + CLI
    </text>
  </g>
</svg>
